<svg version="1.2" xmlns="http://www.w3.org/2000/svg" viewBox="0 0 300 300" width="300" height="300">
	<title>Novo Projeto</title>
	<style>
		.s0 { fill: #104b07 } 
		.s1 { fill: #2cb0f4 } 
		.s2 { fill: #7d4107 } 
		.s3 { fill: #8e8e8e } 
		.s4 { fill: #52a819 } 
		.s5 { fill: #995e25 } 
		.s6 { fill: #ffffff } 
	</style>
	<g id="Background">
		<path id="Path 0" class="s0" d="m53.3 232.2c4 0.5 10.1 0.6 13.7 0.3 3.6-0.4 22.9-0.9 43-1.1 29.9-0.4 37.4-0.2 41.5 1 2.8 0.7 10.5 2.3 17.3 3.5 6.7 1.2 12.2 2.3 12.2 2.6 0 0.3-0.4 1.6-1 3-0.9 2.3-0.7 2.5 2 3 1.9 0.3 4-0.1 5.8-1.3 2.5-1.7 4.7-1.8 29.8-1.3 25.4 0.6 27.3 0.7 29.3 2.6 1.1 1.1 1.8 2.3 1.6 2.7-0.3 0.5 0.8 0.8 2.5 0.8 2.7 0 3-0.3 3-6l45.5 0.5 0.5 57.5h-300v-62l2.3 1.1c0-1.6 4.7-0.9 7.5-1.1 2.7-0.3 9-1.5 10.7-0.9 5.3 1.8 6.5-2.1 10-1.1 3.7 1.1 4.5 0.9 9.8-1.7 5.5-2.8 6.2-2.9 13-2.1z"/>
		<path id="Path 1" class="s1" d="m0 0h300v242.5l-49.4-1-4.9-6c-2.7-3.3-5.6-7.3-6.4-9-0.9-1.7-2.4-6.8-3.4-11.5-1-4.7-1.8-11.1-1.9-14.3 0-5.7 0-5.7 2.2-4.2 1.4 0.9 4.6 1.5 8.2 1.5 5.5 0 6.1-0.2 14.7-8.5l-0.2-9.5c-0.1-5.2 0.1-10.4 0.6-11.5 0.4-1.2 0.2-3.3-0.8-5.5-0.9-1.9-1.8-4.4-2.1-5.5-0.3-1.1-2.2-3.2-4.3-4.7-2.1-1.5-5-2.8-9.3-2.8l0.8-5.4c0.6-5 0.5-5.7-1.8-8.1-2.2-2.2-3.3-2.5-8.7-2.5-3.6 0-7.6 0.7-12.3 3v-4c0-3.2-0.5-4.4-2.7-6-1.7-1.2-4.3-2-6.3-2-1.9 0-6 1.3-9 2.8-3.9 1.9-5.9 3.7-7 5.9-1.4 3-1.8 3.3-6.5 3.3-3.6-0.1-6 0.6-8.5 2.3-2.4 1.5-3.6 3.1-3.7 5-0.2 1.9 0.6 3.6 3 6 1.7 1.8 4.3 4 5.7 4.9 2.4 1.5 2.4 1.7 0.8 3.4-1.4 1.5-1.8 3.8-1.8 10.9 0 8.4 0.1 9.2 2.6 11.5 2.1 2 3.8 2.6 15.9 3.2l-0.3 6.7c-0.2 3.6-1.2 11.5-2.4 17.6-1.1 6.1-2.9 12.6-3.9 14.5-1.1 1.9-1.9 3.8-1.9 4.2 0 0.5-1.2 2.4-2.7 4.4-1.6 2-4 4.5-5.5 5.5-2.8 1.9-3 1.9-16.6-0.7-7.5-1.5-15.8-3.3-18.4-4-3.7-1.1-13-1.4-40.3-1.4-35.2 0-35.5 0-34.5-2 0.5-1.1 1-3.2 1-4.8 0-1.5-0.7-3.7-1.5-5-0.9-1.3-2.9-2.4-5.3-2.8-2-0.3-5.2-1-7-1.5-1.9-0.5-4.4-2.5-6.2-4.9-1.7-2.2-4.2-4.3-5.8-4.7-1.5-0.3-4.1-2-5.7-3.6-2.6-2.6-3.5-2.9-7-2.3-2.2 0.3-5.7 1.8-7.8 3.3-2.2 1.6-4.6 4-5.5 5.5-1 1.5-3.1 3.6-4.9 4.5-1.7 1-7.3 3.9-21.3 11.3v-112z"/>
		<path id="Path 2" class="s2" d="m209.2 180.1c0.3-0.1 0.4 0.9 0.2 2.2-0.3 1.2-0.9 6.7-1.4 12.2-0.5 5.5-1.6 13.4-2.5 17.5-0.9 4.1-2.5 9.4-3.6 11.8-1 2.3-1.9 4.4-1.9 4.7 0 0.3-1.7 2.8-3.7 5.6-2.1 2.8-3.7 5.5-3.5 6 0.1 0.5-0.4 0.9-1 0.9-0.7-0.1-2.6 0.9-4.3 2.1-2.4 1.7-3.6 2-5.6 1.3-2.3-0.8-2.5-1.2-1.8-3.1 0.5-1.3 1.8-2.3 2.9-2.3 1.1 0 4.3-2.2 7-5 2.8-2.7 5-5.6 5-6.2 0-0.7 0.8-2.9 1.9-4.8 1-1.9 2.8-8.3 4-14.2 1.1-6 2.1-13.4 2.1-16.5-0.1-4.9 0.3-6.3 2.7-9 1.5-1.7 3.1-3.2 3.5-3.2zm13.9 4.9c2.8 0 2.9 0.2 2.9 4.8 0 2.6-0.6 6.4-1.5 8.5-1.4 3.4-1.8 3.7-5.5 3.7-3 0-4.4-0.5-5.5-2.2-0.8-1.3-1.5-3.9-1.6-5.8 0-2 0.7-4 1.6-4.7 0.8-0.7 1.8-1.1 2.3-0.8 0.4 0.2 1.6-0.4 2.6-1.5 1-1.1 3.2-2 4.7-2zm8 2c1.8 0 2.2 0.7 2.5 5.3 0.2 2.8 0.4 7.2 0.4 9.7 0.1 2.5 0.9 8.3 1.9 13 1 4.7 2.5 9.8 3.4 11.5 0.9 1.7 3.7 5.7 6.4 8.9 2.6 3.3 5.6 6.1 6.6 6.3 1.2 0.2 1.7 1.2 1.7 3.3 0 2.7-0.3 3-3.2 3-1.7 0-2.8-0.3-2.5-0.7 0.3-0.5-1.3-3-3.7-5.8-2.4-2.7-6-7.5-8-10.5-2.1-3-3.9-6.4-4.2-7.5-0.2-1.1-1.1-5.3-1.9-9.2-0.8-4-1.5-11.8-1.5-17.3 0-9.5 0.1-10 2.1-10z"/>
		<path id="Path 3" class="s3" d="m41.3 199c1.7 0 3.7 1 5.5 2.8 1.5 1.6 3.9 3.2 5.5 3.5 1.5 0.4 4 2.5 5.7 4.7 1.8 2.4 4.3 4.4 6.3 4.9 1.7 0.5 4.9 1.2 7 1.5 2.3 0.4 4.3 1.5 5.2 2.8 0.8 1.3 1.5 3.6 1.6 5.3 0 1.7-0.9 4.1-2 5.5-1.7 2.2-2.9 2.5-8.8 2.8-3.7 0.2-10.1 0-14.1-0.5-7-0.8-7.7-0.6-13 2-5.2 2.6-6.1 2.8-9.7 1.7-3.5-1-4.4 0.8-10 1.1-3 0.1-7.2 0.4-10 0.6-2.7 0.3-8.7-1.5-8.2 1.4 0.3 2.3-2.3-1.7-1.8-15.6l9-4.7c5-2.6 10.5-5.4 12.3-6.2 1.7-0.9 3.2-2 3.2-2.6 0-0.6 1.7-2.7 3.8-4.7 2-2 5.1-4.2 6.7-4.9 1.6-0.7 4.2-1.3 5.8-1.4z"/>
		<path id="Path 4" class="s4" d="m212 125c2 0 4.6 0.8 6.3 2 2.2 1.6 2.7 2.8 2.7 10l3-1.5c1.7-0.8 5.7-1.5 9.3-1.5 5.4 0 6.5 0.3 8.7 2.5 2.3 2.4 2.4 3.1 1 13.5h2.8c1.5 0 4.4 1.3 6.5 2.8 2.1 1.5 4 3.6 4.3 4.7 0.3 1.1 1.2 3.6 2.1 5.5 1 2.2 1.2 4.3 0.8 5.5-0.5 1.1-0.7 6.3-0.4 21l-4.4 4.3c-4.2 4-4.8 4.2-10.3 4.2-4.4 0.1-6.6-0.4-8.6-2-2.1-1.5-2.8-2.8-2.8-5.5 0-3.2-0.2-3.5-3-3.5-1.7 0-3.7-0.7-4.5-1.5-0.8-0.8-1.3-1.7-1-2 0.3-0.3-0.7-1.4-2.2-2.5-1.9-1.4-4.3-2.1-7.5-2-3.9 0-5.2 0.5-7 2.6-2.2 2.4-2.8 2.5-10 2.2-6.5-0.3-8-0.7-10.2-2.8-2.5-2.3-2.6-3.1-2.6-11.5 0-7.1 0.4-9.4 1.8-10.9 1.6-1.7 1.6-1.9-0.8-3.4-1.4-0.9-4-3.1-5.8-4.9-2.3-2.4-3.1-4.1-2.9-6 0.1-1.9 1.3-3.5 3.7-5 2.5-1.7 4.9-2.4 8.5-2.3 4.7 0 5.1-0.3 6.5-3.3 1.1-2.2 3.1-4 7-5.9 3-1.5 7.1-2.8 9-2.8z"/>
		<path id="Path 5" class="s5" d="m210.3 179h4.6c3.1-0.1 5.5 0.6 7.3 2 1.6 1.1 2.6 2.4 2.3 3-0.3 0.6-1.3 1-2.3 1-0.9-0.1-2.6 0.8-3.7 1.9-1.1 1.2-2.3 1.8-2.8 1.6-0.4-0.3-1.4 0.1-2.2 0.8-0.9 0.7-1.6 2.7-1.6 4.7 0.1 1.9 0.8 4.5 1.6 5.8 1.1 1.7 2.5 2.2 5.5 2.2 3.7 0 4.1-0.3 5.5-3.8 0.9-2 1.5-5.4 1.5-7.5 0-2.6 0.4-3.7 1.5-3.7 1.2 0 1.5 1.8 1.5 10.3 0.1 5.8 0.8 13.9 1.9 18.7 0.9 4.7 2.3 9.6 3.1 11 0.7 1.4 3.2 5 5.4 8 2.3 3 4.5 5.9 4.8 6.5 0.4 0.7-7.8 0.9-24 0.7-13.6-0.2-25.5-0.8-26.5-1.3-1.5-0.8-1.4-1.3 1.5-5.4 1.8-2.5 3.6-5.1 4-5.8 0.4-0.6 1.6-3.3 2.8-6 1.1-2.6 2.9-9.2 4-14.7 1.1-5.5 2-12.3 2-15 0-2.8 0.5-7.3 1.1-10z"/>
		<path id="Path 6" class="s6" d="m238.2 46c2.1 0 4.9 0.6 6.3 1.3 1.4 0.6 3.2 2.8 4.1 4.7 1.1 2.4 1.4 4.6 0.9 7-0.4 1.9-1.3 4.6-2 6-0.7 1.4-3.5 4.8-6.1 7.6-2.7 2.7-5.9 5.6-7.1 6.2-1.3 0.7-6.9 1.5-12.5 1.9q-10.3 0.6-13.8-0.5c-3.2-1.1-3.7-1-6.3 1.5-2.6 2.6-3.5 2.8-12 3-5.1 0.1-10.3-0.2-11.7-0.7-1.4-0.5-3.1-2.4-3.9-4.2-1-2.5-1.1-3.9-0.3-5.8 0.6-1.4 2.4-3.1 3.9-3.8 1.5-0.6 3.7-2.7 4.7-4.5 1.1-1.7 3.3-4.9 5-7 1.7-2.1 4.9-4.7 7.1-5.9 3.6-1.8 5.4-2 18-1.7 13.8 0.3 14 0.3 17.9-2.4 2.6-1.8 5.2-2.7 7.8-2.7zm-170.6 3.3c6.4 0.2 9.6 0.6 10.9 1.7 0.9 0.8 2.4 2.9 3.2 4.5 1.2 2.5 1.3 3.7 0.2 7.5-0.7 2.5-0.9 5.3-0.6 6.3 0.4 0.9 1.9 2.2 3.5 2.8 1.5 0.6 4.2 2.3 6 3.7 1.8 1.5 3.8 4.3 4.3 6.2 0.8 2.6 0.8 4.2-0.3 6.3-0.7 1.5-2 3-2.8 3.2-0.8 0.3-3.3 2.1-5.5 4.1-2.2 2-5.3 4.3-7 5.1-2 1.1-4.5 1.4-7.5 1-2.5-0.3-5.6-1-7-1.6-1.4-0.6-3.2-2.6-4.1-4.4-0.9-1.7-2.3-6-3-9.4-1.3-6-1.5-6.2-3.9-5.5-1.4 0.4-4.7 0.6-7.5 0.5-4.4-0.2-5.4-0.6-8.4-4-3.2-3.6-3.4-4.1-2.8-9 0.4-2.9 1.4-6.6 2.2-8.3 0.8-1.6 2.5-3.7 3.8-4.5 1.2-0.8 5.6-2.6 9.7-3.9 5.9-1.9 9.4-2.4 16.6-2.3zm37.9 110.7c1.1 0 3 0.7 4.3 1.5 1.2 0.8 2.9 2.9 3.7 4.5 0.8 1.7 1.5 4.4 1.5 6 0 1.7-0.7 4.6-1.5 6.5-0.8 1.9-2.5 4.1-3.7 4.9-1.3 0.8-4.7 1.9-7.5 2.5-2.9 0.6-7.9 2.3-11 3.8-3.2 1.4-7.1 4.1-8.8 5.9-3 3.3-3.1 3.3-12 3.4-8 0.1-9.4-0.2-12.7-2.5-2.1-1.4-4.2-2.5-4.8-2.5-0.5 0-2.1-0.6-3.5-1.2-1.4-0.7-3-2.4-3.6-3.8-0.6-1.4-0.8-3.4-0.5-4.5 0.3-1.1 3.3-4.9 12.8-15l6.6-0.4c5.1-0.2 8.1 0.2 12.2 1.8 3 1.2 6.7 2.1 8.3 2.1 1.5 0 3.5-0.9 4.5-1.9 0.9-1.1 2.4-3.1 3.4-4.6 0.9-1.5 3.6-3.6 6-4.6 2.3-1 5.2-1.9 6.3-1.9zm113 33c0.8 0 1.7 0.3 1.9 0.8 0.3 0.4 0.1 1.4-0.4 2.2-0.4 0.8-1.3 1.2-1.9 0.8-0.6-0.5-1.1-1.5-1.1-2.3 0-0.8 0.7-1.5 1.5-1.5z"/>
		<path id="Path 7" class="s2" d="m203.1 156c1.1 0 2.1 0.7 2.4 1.5 0.3 0.8 0.1 2.4-0.5 3.5-0.6 1.1-1 2.4-1 3 0 0.6 0.4 1 1 1 0.6 0 2.4 1 4 2.3 1.7 1.2 3 2.9 3 3.7 0 0.8-1.1 2.1-2.5 2.8-2.2 1-2.6 1-3-0.5-0.3-1-2-2.2-3.8-2.8-2-0.6-3.5-2-4.2-3.7-0.8-2.1-0.6-3.6 0.9-6.7 1.2-2.7 2.5-4.1 3.7-4.1zm22.6 10q2.3 0 2.3 1.8c0 0.9-1 2.7-2.3 4-1.2 1.2-3 2.2-3.9 2.2-1 0-2-0.8-2.3-1.8-0.3-1 0.4-2.7 1.7-4 1.2-1.2 3.2-2.2 4.5-2.2zm17.2 4.2c0.9 0.2 1.7 1.1 1.8 2 0.2 1-0.7 3.2-1.9 4.8-1.5 2-3 3-4.3 2.8-1.1-0.2-2.1-1-2.3-1.8-0.2-0.8 0.9-3 2.4-4.8 1.5-1.8 3.4-3.2 4.3-3zm-9.6 6.9c0.4-0.1 1 0.6 1.5 1.4 0.4 0.9 0.3 2-0.3 2.6-0.6 0.5-1.8 0.7-2.7 0.4-1-0.3-1.9-1.1-2-1.9-0.1-0.8 0.5-1.7 1.3-1.9 0.7-0.3 1.7-0.6 2.2-0.6z"/>
	</g>
</svg>